<mxfile host="app.diagrams.net" modified="2024-05-31T07:44:42.771Z" agent="Mozilla/5.0 (X11; Linux x86_64; rv:125.0) Gecko/20100101 Firefox/125.0" version="24.4.10" etag="4deefwD0MVL0uG91nA6P" type="github">
  <diagram name="Page-1" id="6fzfSNG3dwD8BDjkgZNs">
    <mxGraphModel>
      <root>
        <mxCell id="0" />
        <mxCell id="1" parent="0" />
      </root>
    </mxGraphModel>
  </diagram>
</mxfile>
